<?xml version="1.0" encoding="UTF-8"?>
<svg xmlns="http://www.w3.org/2000/svg" xmlns:xlink="http://www.w3.org/1999/xlink" width="2500px" height="2500px" viewBox="0 0 2500 2500" version="1.1">
<g id="surface1">
<path style=" stroke:none;fill-rule:nonzero;fill:rgb(0%,0%,0%);fill-opacity:1;" d="M 796.875 459.375 C 556.25 598.75 354.375 718.125 348.75 725.625 C 338.125 738.125 337.5 772.5 337.5 1250 C 337.5 1727.5 338.125 1761.875 348.75 1773.75 C 362.5 1790.625 490 1863.75 492.5 1856.875 C 493.75 1853.75 590 1590 706.25 1270.625 C 856.875 859.375 922.5 687.5 931.875 679.375 C 943.75 670 960 668.75 1066.25 668.75 C 1175 668.75 1187.5 670 1193.125 679.375 C 1197.5 688.125 1133.75 868.75 936.875 1406.25 C 793.125 1800 676.25 2126.25 676.875 2130.625 C 677.5 2135.625 696.25 2150.625 718.75 2163.75 L 759.375 2186.875 L 766.25 2170 C 770.625 2160.625 893.75 1823.75 1040.625 1421.875 C 1219.375 930.625 1311.25 686.875 1320 679.375 C 1331.25 670 1347.5 668.75 1453.125 668.75 C 1553.125 668.75 1575 670.625 1581.25 678.125 C 1588.125 686.25 1583.125 704.375 1554.375 783.125 C 1349.375 1341.875 1050.625 2163.75 1048.75 2171.875 C 1047.5 2179.375 1073.125 2197.5 1143.125 2238.125 C 1196.25 2268.75 1244.375 2293.75 1250.625 2293.75 C 1258.125 2293.75 1450.625 2188.75 1460.625 2178.75 C 1461.25 2178.125 1428.125 2086.25 1387.5 1975 C 1346.25 1863.125 1312.5 1767.5 1312.5 1761.875 C 1312.5 1752.5 1425.625 1439.375 1434.375 1425 C 1441.875 1412.5 1456.875 1419.375 1465 1438.75 C 1470 1450 1520.625 1588.75 1578.125 1746.875 C 1635.625 1905 1685 2036.875 1687.5 2040 C 1692.5 2045 1771.25 2004.375 1778.125 1993.75 C 1780 1990.625 1720.625 1821.25 1646.25 1617.5 C 1571.25 1413.75 1509.375 1241.25 1508.125 1234.375 C 1505.625 1221.25 1620.625 901.875 1631.25 891.25 C 1635.625 886.875 1641.25 886.875 1647.5 890.625 C 1654.375 895 1953.125 1696.25 2006.875 1854.375 C 2009.375 1862.5 2124.375 1801.25 2149.375 1778.125 C 2162.5 1766.875 2162.5 1763.125 2162.5 1250 C 2162.5 846.25 2160.625 731.25 2154.375 723.75 C 2140.625 706.875 1265 206.25 1249.375 206.875 C 1241.25 206.875 1037.5 320.625 796.875 459.375 Z M 796.875 459.375 "/>
</g>
</svg>
