<?xml version="1.0" standalone="no"?>
<!DOCTYPE svg PUBLIC "-//W3C//DTD SVG 20010904//EN"
 "http://www.w3.org/TR/2001/REC-SVG-20010904/DTD/svg10.dtd">
<svg version="1.0" xmlns="http://www.w3.org/2000/svg"
 width="500.000000pt" height="500.000000pt" viewBox="0 0 500.000000 500.000000"
 preserveAspectRatio="xMidYMid meet">

<g transform="translate(0.000000,500.000000) scale(0.100000,-0.100000)"
fill="#000000" stroke="none">
<path d="M0 2500 l0 -2500 2500 0 2500 0 0 2500 0 2500 -2500 0 -2500 0 0
-2500z m2708 1084 c226 -40 467 -176 607 -342 27 -31 42 -51 35 -44 -26 23
-32 12 -10 -18 12 -16 26 -30 32 -30 6 0 5 7 -3 18 -7 9 1 2 19 -15 29 -31 36
-33 96 -33 l66 0 0 -60 0 -60 -90 0 -90 0 0 -70 0 -70 81 0 c61 0 80 3 76 13
-13 36 -14 56 0 25 15 -36 18 -38 59 -38 l44 0 0 -60 c0 -58 -1 -60 -26 -60
-24 0 -26 -3 -20 -27 4 -16 9 -82 11 -148 l5 -120 -42 -35 -43 -34 38 40 c30
33 37 47 37 81 0 26 -7 49 -20 64 l-19 24 -1 -57 0 -58 -155 0 -155 0 0 325 0
325 60 0 c89 0 79 22 -31 64 -69 27 -69 36 0 11 22 -8 41 -10 41 -5 0 8 -110
108 -175 158 -17 13 -23 20 -15 16 8 -4 43 -29 78 -57 34 -27 62 -44 62 -39 0
20 -165 162 -188 162 -20 0 -13 -27 11 -44 l22 -17 -24 12 c-20 9 -27 7 -52
-17 -16 -15 -29 -33 -29 -40 0 -19 50 -74 66 -74 9 0 12 -5 8 -11 -3 -6 7 -25
22 -42 28 -31 27 -31 -8 2 -21 19 -40 32 -44 29 -8 -9 -41 25 -37 37 4 12 -49
63 -117 115 -25 18 -49 38 -55 43 -17 17 17 -4 72 -45 51 -37 73 -46 73 -30 0
4 -6 14 -12 22 -7 8 -3 6 10 -5 23 -19 23 -19 48 7 l26 26 -43 26 c-45 27 -44
37 1 11 40 -23 46 -17 15 15 -38 40 -181 93 -160 60 4 -6 27 -21 53 -34 38
-20 42 -24 20 -22 -15 1 -33 8 -41 14 -8 7 -39 21 -68 32 -30 11 -40 18 -24
14 27 -5 29 -4 14 11 -8 9 -39 18 -70 20 -36 4 -48 2 -34 -4 13 -6 -12 -8 -73
-5 l-94 3 55 -58 c30 -31 72 -84 93 -117 20 -32 42 -62 48 -66 18 -13 79 -9
135 8 29 8 56 13 59 10 3 -3 0 -6 -6 -6 -6 0 -23 -5 -39 -11 l-28 -12 25 -8
c14 -4 -5 -5 -44 -2 -58 5 -71 3 -82 -11 -8 -11 -14 -13 -19 -7 -3 6 -17 11
-31 11 -23 0 -24 1 -10 16 9 8 16 18 16 21 0 12 -73 113 -112 153 l-42 45 -7
-35 -6 -35 -2 41 c-1 44 -21 70 -45 61 -8 -3 -16 -1 -18 4 -6 19 -123 -68
-200 -149 -43 -45 -78 -86 -78 -92 0 -5 13 -10 29 -10 17 0 33 -4 36 -10 4 -6
-6 -7 -25 -3 -23 4 -39 0 -60 -15 l-28 -21 6 21 c5 19 2 20 -34 14 -21 -4 -45
-15 -51 -24 -8 -9 -13 -11 -13 -4 0 7 -12 13 -27 13 l-28 1 30 7 c37 8 44 34
13 49 -22 11 -22 11 4 6 22 -5 29 -1 42 23 l15 28 -5 -31 c-5 -28 -3 -32 25
-42 43 -15 52 -10 106 59 26 33 78 85 117 116 39 32 66 59 61 60 -5 2 -50 -10
-98 -27 -100 -34 -129 -34 -36 1 56 20 86 39 63 39 -74 0 -167 -45 -155 -76 3
-8 -2 -17 -11 -20 -10 -4 -28 -23 -42 -43 -18 -24 -24 -29 -19 -13 3 12 3 22
-2 22 -18 0 -103 -66 -99 -77 3 -7 -1 -10 -9 -7 -8 3 -36 -13 -65 -38 -47 -40
-49 -43 -28 -50 l23 -6 -23 -1 c-45 -2 -60 -17 -200 -196 l-24 -30 19 33 c11
18 43 62 72 99 40 50 50 68 39 74 -9 6 -7 9 8 9 21 0 142 96 143 114 1 5 -7
19 -16 30 -18 21 -18 21 3 4 11 -10 25 -18 31 -18 36 0 211 139 186 147 -17 6
-159 -42 -200 -67 -18 -11 -33 -24 -33 -30 0 -5 -6 -7 -13 -4 -7 2 -34 -10
-61 -27 -55 -37 -162 -171 -143 -179 9 -3 1 -15 -20 -34 -22 -19 -31 -22 -27
-11 7 16 5 16 -27 0 -19 -10 -49 -31 -68 -49 l-35 -31 19 30 c65 107 190 233
306 310 247 165 526 222 827 169z m-58 -64 c18 -12 2 -12 -25 0 -13 6 -15 9
-5 9 8 0 22 -4 30 -9z m117 4 c-3 -3 -12 -4 -19 -1 -8 3 -5 6 6 6 11 1 17 -2
13 -5z m-67 -24 c8 -5 11 -10 5 -10 -5 0 -17 5 -25 10 -8 5 -10 10 -5 10 6 0
17 -5 25 -10z m-213 -37 c-3 -10 -5 -4 -5 12 0 17 2 24 5 18 2 -7 2 -21 0 -30z
m333 -29 c0 -2 -13 2 -30 11 -16 9 -30 18 -30 21 0 2 14 -2 30 -11 17 -9 30
-18 30 -21z m-343 -51 c-3 -10 -5 -2 -5 17 0 19 2 27 5 18 2 -10 2 -26 0 -35z
m153 -84 l55 -6 -54 -1 c-40 -2 -52 -5 -48 -15 8 -21 -7 -38 -27 -31 -12 5
-14 10 -6 19 6 7 10 17 9 21 -1 5 0 32 1 59 l3 50 6 -45 6 -45 55 -6z m-159
-12 c-13 -13 -21 5 -14 33 l6 24 9 -24 c5 -14 5 -27 -1 -33z m-84 6 c-20 -2
-52 -2 -70 0 -17 2 0 4 38 4 39 0 53 -2 32 -4z m1 -30 c-16 -2 -40 -2 -55 0
-16 2 -3 4 27 4 30 0 43 -2 28 -4z m82 -2 c0 -6 -4 -13 -10 -16 -5 -3 -10 1
-10 9 0 9 5 16 10 16 6 0 10 -4 10 -9z m188 2 c-10 -2 -26 -2 -35 0 -10 3 -2
5 17 5 19 0 27 -2 18 -5z m315 0 c-7 -2 -21 -2 -30 0 -10 3 -4 5 12 5 17 0 24
-2 18 -5z m-986 -9 c-3 -3 -12 -4 -19 -1 -8 3 -5 6 6 6 11 1 17 -2 13 -5z
m822 -109 c0 -5 -11 10 -24 35 -13 25 -24 50 -24 55 0 6 11 -10 24 -35 13 -25
24 -49 24 -55z m318 89 c-3 -3 -12 -4 -19 -1 -8 3 -5 6 6 6 11 1 17 -2 13 -5z
m-1060 -26 c-3 -8 -6 -5 -6 6 -1 11 2 17 5 13 3 -3 4 -12 1 -19z m390 -30 c-2
-13 -4 -5 -4 17 -1 22 1 32 4 23 2 -10 2 -28 0 -40z m710 46 c-3 -3 -12 -4
-19 -1 -8 3 -5 6 6 6 11 1 17 -2 13 -5z m-517 -146 c104 -54 150 -138 152
-278 1 -142 -53 -236 -170 -291 -64 -31 -72 -32 -197 -33 l-130 -1 -3 127 -3
127 58 3 c49 3 58 6 58 22 0 11 5 21 10 23 6 2 9 -32 7 -92 l-4 -95 36 0 c88
0 175 52 197 117 15 45 15 130 0 174 -22 69 -101 119 -186 119 l-45 0 0 -70 0
-70 -65 0 -65 0 0 130 0 130 73 1 c93 1 135 0 170 -7 27 -6 27 -5 29 53 l1 58
6 -57 6 -56 65 -34z m-593 90 c-3 -8 -6 -5 -6 6 -1 11 2 17 5 13 3 -3 4 -12 1
-19z m56 -27 c-4 -15 3 -20 32 -25 49 -9 112 -68 127 -118 9 -31 9 -50 0 -84
-11 -42 -53 -117 -78 -139 -16 -14 -134 -173 -134 -179 0 -3 52 -6 115 -6
l115 0 0 -60 0 -59 -195 -3 -195 -3 0 56 c0 42 6 64 23 87 12 17 45 63 72 102
28 40 55 78 62 85 33 35 93 131 93 148 0 73 -108 74 -122 2 -2 -11 -7 -19 -11
-17 -4 1 -29 2 -57 2 -49 0 -50 1 -50 30 0 17 6 45 14 63 14 35 69 87 91 87 8
0 19 8 24 18 6 9 11 11 11 5 0 -21 38 -15 50 7 13 25 20 26 13 1z m1028 2 c13
-16 12 -17 -3 -4 -17 13 -22 21 -14 21 2 0 10 -8 17 -17z m-29 -23 c28 0 28
-1 28 -60 l0 -60 -90 0 -90 0 0 -70 0 -70 130 0 131 0 -3 -62 -3 -63 -127 3
-128 3 0 -75 0 -76 90 0 90 0 0 -60 0 -60 -155 0 -154 0 -3 313 c-2 171 -6
319 -9 327 -3 8 -4 13 -2 10 7 -11 243 1 243 13 0 8 3 8 12 -1 7 -7 25 -12 40
-12z m-1592 -30 c12 -17 26 -27 32 -24 6 4 8 2 5 -3 -7 -11 60 -120 86 -142
11 -8 21 -1 46 34 l32 45 75 0 c57 0 73 -3 68 -12 -4 -7 -38 -56 -75 -109
l-68 -96 -3 -154 -3 -154 -61 -3 -62 -3 -4 38 c-3 21 -3 90 -1 153 l5 115
-106 147 c-58 82 -113 159 -122 173 l-16 25 75 0 c73 0 76 -1 97 -30z m-69
-261 c-5 -13 -10 -19 -10 -12 -1 15 10 45 15 40 3 -2 0 -15 -5 -28z m1065 -18
c41 1 77 -1 81 -5 3 -3 -47 -5 -113 -4 -65 0 -104 3 -86 5 24 3 32 9 33 26 2
21 2 21 6 -1 4 -22 9 -23 79 -21z m-532 -2 c-3 -5 -10 -7 -15 -3 -5 3 -7 10
-3 15 3 5 10 7 15 3 5 -3 7 -10 3 -15z m32 -24 c-3 -8 -14 -15 -25 -15 -11 0
-24 -6 -28 -14 -7 -12 -10 -12 -21 0 -11 12 -10 14 3 14 8 0 15 4 15 9 0 4 11
6 25 3 21 -4 25 0 26 19 0 13 3 18 6 11 3 -7 2 -19 -1 -27z m-582 -24 c-4 -17
-9 -30 -11 -27 -3 2 -2 19 2 36 9 41 17 33 9 -9z m1156 11 c0 -13 -12 -22 -22
-16 -10 6 -1 24 13 24 5 0 9 -4 9 -8z m-687 -19 c-7 -2 -19 -2 -25 0 -7 3 -2
5 12 5 14 0 19 -2 13 -5z m-56 -9 c-3 -3 -12 -4 -19 -1 -8 3 -5 6 6 6 11 1 17
-2 13 -5z m-430 -61 c-3 -10 -5 -4 -5 12 0 17 2 24 5 18 2 -7 2 -21 0 -30z
m138 -24 c-4 -8 -26 -23 -50 -35 -50 -23 -51 -13 -2 12 18 9 36 23 40 31 11
18 20 11 12 -8z m-148 -61 c-2 -13 -4 -3 -4 22 0 25 2 35 4 23 2 -13 2 -33 0
-45z m130 0 c-3 -7 -5 -2 -5 12 0 14 2 19 5 13 2 -7 2 -19 0 -25z m-121 -44
c-16 -42 -17 -66 -3 -94 9 -17 11 -28 6 -25 -10 7 -12 -54 -3 -79 3 -9 17 -16
30 -16 29 0 30 -6 5 -43 -10 -16 -17 -39 -14 -50 4 -16 2 -18 -5 -8 -7 10 -22
-7 -61 -70 -28 -46 -51 -87 -51 -92 0 -4 38 -67 84 -140 l85 -132 -71 -3 c-39
-2 -76 -1 -83 1 -6 3 -33 41 -60 86 l-49 81 -49 -85 -49 -85 -74 0 -73 0 84
132 c47 72 85 136 85 141 0 6 -34 63 -75 128 -41 65 -75 123 -75 129 0 6 30
10 75 10 l74 0 42 -70 c23 -39 45 -73 49 -75 5 -3 23 21 40 52 44 79 58 93 94
93 l32 0 -8 93 c-9 96 -5 137 13 137 6 0 8 -7 5 -16z m111 -16 c-3 -7 -5 -2
-5 12 0 14 2 19 5 13 2 -7 2 -19 0 -25z m-10 -80 c-2 -13 -4 -5 -4 17 -1 22 1
32 4 23 2 -10 2 -28 0 -40z m1060 -70 c-2 -13 -4 -5 -4 17 -1 22 1 32 4 23 2
-10 2 -28 0 -40z m1020 -10 c-2 -13 -4 -5 -4 17 -1 22 1 32 4 23 2 -10 2 -28
0 -40z m-520 20 c-3 -8 -6 -5 -6 6 -1 11 2 17 5 13 3 -3 4 -12 1 -19z m390 0
c-3 -8 -6 -5 -6 6 -1 11 2 17 5 13 3 -3 4 -12 1 -19z m-1996 -5 c13 -16 12
-17 -3 -4 -10 7 -18 15 -18 17 0 8 8 3 21 -13z m425 -70 c-3 -49 -5 -91 -6
-95 0 -5 -44 -8 -98 -8 -92 0 -100 -2 -122 -25 -20 -21 -24 -38 -28 -108 -5
-100 12 -153 53 -163 30 -8 161 0 188 11 15 6 17 0 17 -56 1 -66 21 -106 63
-122 9 -3 17 -12 17 -19 0 -19 42 -58 62 -58 11 0 16 -4 13 -10 -3 -5 22 -30
57 -56 35 -25 65 -49 68 -52 10 -12 -57 32 -97 64 -44 36 -69 44 -59 18 13
-35 -15 0 -33 42 -14 31 -30 49 -52 58 -18 7 -27 15 -21 17 7 3 3 14 -11 31
-21 27 -23 28 -65 15 -23 -7 -41 -15 -38 -18 3 -2 -30 -3 -72 -1 -91 5 -156
32 -189 80 -47 71 -54 277 -11 359 19 37 98 119 98 102 0 -5 12 -4 26 1 14 6
72 10 130 10 l104 0 0 35 c0 19 3 35 6 35 3 0 3 -39 0 -87z m1081 35 c-2 -13
-4 -5 -4 17 -1 22 1 32 4 23 2 -10 2 -28 0 -40z m440 20 c-3 -7 -5 -2 -5 12 0
14 2 19 5 13 2 -7 2 -19 0 -25z m-1899 -27 c-12 -4 -29 20 -21 32 3 4 11 0 18
-10 9 -12 10 -19 3 -22z m1962 -292 l0 -259 -59 0 -60 0 -78 -78 c-94 -93
-180 -156 -290 -211 -166 -83 -309 -115 -503 -115 -190 1 -362 44 -519 130
-131 71 -320 235 -287 247 23 9 48 -3 42 -20 -4 -9 15 -36 51 -72 52 -51 143
-121 157 -121 11 0 6 23 -8 39 -13 14 -12 16 8 16 17 0 22 -5 18 -18 -9 -35
78 -101 161 -121 36 -8 35 8 -2 30 -16 10 -32 25 -35 33 -2 9 -14 32 -26 51
-12 19 -13 24 -3 10 46 -62 67 -80 116 -100 29 -11 39 -18 22 -15 -28 6 -29 5
-13 -11 10 -10 37 -18 70 -20 38 -3 47 -2 33 5 -25 12 -7 13 57 2 57 -9 54 0
-7 24 -26 9 -44 19 -42 21 2 2 31 -7 65 -21 94 -38 100 -33 40 36 -29 34 -71
89 -93 123 l-41 61 -61 -1 c-34 0 -60 3 -57 8 3 4 24 8 48 8 23 0 46 4 51 8 6
5 26 5 45 1 22 -4 28 -7 15 -9 -11 -2 3 -6 30 -10 l50 -7 -47 -1 c-27 -1 -48
-6 -48 -11 0 -16 78 -125 115 -161 30 -29 37 -32 45 -20 8 12 10 9 10 -12 0
-30 37 -60 44 -36 12 39 14 41 15 15 l1 -28 42 23 c24 13 83 61 132 108 80 75
85 78 43 28 -27 -31 -73 -75 -103 -99 -30 -23 -52 -44 -50 -47 8 -7 176 47
220 71 24 14 49 40 67 72 16 28 29 46 29 40 -1 -5 -7 -21 -15 -35 -23 -41 -18
-43 31 -15 26 15 44 22 40 16 -4 -6 -24 -20 -44 -30 -42 -22 -109 -87 -99 -97
8 -8 155 43 204 71 21 12 37 28 37 37 -1 13 2 14 16 6 22 -14 66 14 134 86 26
28 45 45 41 39 -13 -25 11 -12 58 33 27 24 47 48 45 53 -2 4 -46 71 -98 148
l-95 140 -3 -148 -3 -149 -64 0 -65 0 2 267 c3 259 4 268 23 272 11 2 23 8 27
15 6 8 8 7 8 -1 0 -8 14 -13 34 -13 32 0 38 -6 108 -112 88 -135 116 -178 126
-198 4 -8 9 57 12 145 l5 160 48 3 c36 2 47 7 47 20 0 11 6 7 15 -12 12 -23
15 -77 15 -287z m-1910 281 c8 -5 11 -10 5 -10 -5 0 -17 5 -25 10 -8 5 -10 10
-5 10 6 0 17 -5 25 -10z m-610 -65 l0 -65 -115 0 -115 0 0 -40 0 -40 100 0
100 0 0 -60 0 -60 -101 0 -100 0 3 -42 3 -43 118 -3 117 -3 0 -59 0 -60 -185
0 -185 0 0 263 c0 145 3 267 7 270 3 4 84 7 180 7 l173 0 0 -65z m1130 -40 l5
-100 87 -3 87 -3 3 103 3 103 65 0 65 0 3 -45 c2 -24 9 -48 15 -52 7 -5 45 -8
85 -7 40 1 74 0 76 -2 2 -2 -2 -10 -10 -17 -8 -7 -14 -8 -14 -2 0 6 -30 10
-75 10 l-75 0 0 -210 0 -210 -70 0 -70 0 0 105 0 105 -90 0 -90 0 0 -105 0
-105 -64 0 c-35 0 -66 -4 -68 -10 -2 -8 -2 270 1 503 l1 48 63 -3 62 -3 5
-100z m713 38 c14 -38 39 -106 55 -153 17 -47 46 -128 65 -180 50 -135 51
-140 33 -140 -9 0 -16 -6 -17 -12 0 -10 -2 -10 -6 0 -3 7 -24 12 -53 12 l-47
0 -13 45 -13 45 -98 0 -99 0 -11 -45 -11 -45 -69 0 c-38 0 -69 4 -69 8 0 7 71
203 158 437 14 39 30 76 35 83 6 7 34 12 72 12 l62 0 26 -67z m784 35 c-3 -7
-5 -2 -5 12 0 14 2 19 5 13 2 -7 2 -19 0 -25z m363 -28 l0 -60 -104 0 c-57 0
-112 -3 -121 -6 -31 -12 -45 -59 -45 -153 0 -80 3 -93 24 -118 22 -25 31 -28
88 -28 l63 0 3 43 3 42 -45 0 -46 0 0 55 0 55 105 0 105 0 0 -145 0 -144 -42
-12 c-24 -7 -90 -13 -148 -13 -94 -1 -110 2 -150 24 -68 38 -94 97 -98 227 -5
128 12 189 68 235 56 47 92 56 223 57 l117 1 0 -60z m460 -5 l0 -65 -115 0
-115 0 0 -40 0 -40 100 0 100 0 0 -60 0 -60 -101 0 -100 0 3 -42 3 -43 118 -3
117 -3 0 -59 0 -60 -185 0 -185 0 0 263 c0 145 3 267 7 270 3 4 84 7 180 7
l173 0 0 -65z m-2893 -22 c-3 -10 -5 -4 -5 12 0 17 2 24 5 18 2 -7 2 -21 0
-30z m1466 -43 c-15 -14 -31 -16 -78 -12 -47 4 -54 7 -35 13 14 4 42 7 62 8
20 1 40 6 43 11 4 6 11 8 16 4 6 -4 3 -13 -8 -24z m-466 -17 c-20 -2 -52 -2
-70 0 -17 2 0 4 38 4 39 0 53 -2 32 -4z m649 -392 c-10 -10 -13 -21 -8 -22 4
-2 -14 -19 -42 -37 -28 -19 -43 -25 -33 -14 14 15 15 21 5 25 -7 3 -4 6 8 6
11 1 33 15 49 31 31 33 49 42 21 11z m124 5 c0 -11 -19 -15 -25 -6 -3 5 1 10
9 10 9 0 16 -2 16 -4z m-1062 -31 c-3 -3 -9 2 -12 12 -6 14 -5 15 5 6 7 -7 10
-15 7 -18z m214 -32 c7 -9 7 -13 -1 -13 -8 0 -10 -8 -6 -20 4 -11 2 -20 -4
-20 -6 0 -11 9 -11 20 0 16 -7 20 -32 22 l-33 1 33 4 c28 4 32 8 33 36 2 28 2
28 6 7 3 -14 10 -31 15 -37z m484 2 c-3 -8 0 -15 6 -15 7 0 4 -6 -7 -13 -10
-8 -15 -19 -12 -24 4 -6 0 -16 -8 -23 -11 -9 -15 -9 -15 -1 0 7 -16 19 -36 27
-35 15 -38 14 -63 -8 -14 -12 -20 -16 -13 -8 22 25 13 29 -60 25 -40 -1 -58
-1 -39 2 23 3 30 7 22 12 -7 5 32 6 88 4 90 -4 102 -2 118 16 22 24 27 25 19
6z m-291 -10 c6 -2 -14 -4 -43 -4 -48 -1 -53 -3 -47 -20 7 -23 -12 -38 -28
-22 -8 8 -8 11 2 11 7 0 11 8 10 18 -1 9 -1 20 0 23 1 6 85 1 106 -6z m-860
-15 c10 -11 16 -20 13 -20 -3 0 -13 9 -23 20 -10 11 -16 20 -13 20 3 0 13 -9
23 -20z m258 13 c-7 -2 -19 -2 -25 0 -7 3 -2 5 12 5 14 0 19 -2 13 -5z m954 1
c-3 -3 -12 -4 -19 -1 -8 3 -5 6 6 6 11 1 17 -2 13 -5z m-884 -11 c-7 -2 -19
-2 -25 0 -7 3 -2 5 12 5 14 0 19 -2 13 -5z m928 -47 c-13 -14 -20 -29 -17 -35
4 -7 1 -8 -9 -5 -8 4 -23 0 -32 -7 -15 -13 -15 -12 -2 9 8 12 19 22 25 22 6 0
19 9 29 20 10 11 20 20 23 20 3 0 -5 -11 -17 -24z m-1200 -3 c13 -16 12 -17
-3 -4 -17 13 -22 21 -14 21 2 0 10 -8 17 -17z m69 -50 c0 -7 -39 17 -46 28 -3
6 5 3 20 -6 14 -10 26 -19 26 -22z m627 -20 c-3 -10 -5 -4 -5 12 0 17 2 24 5
18 2 -7 2 -21 0 -30z m-90 -20 c-3 -10 -5 -2 -5 17 0 19 2 27 5 18 2 -10 2
-26 0 -35z m-371 -51 c-5 -4 -106 46 -106 53 0 3 25 -7 55 -22 30 -15 53 -29
51 -31z m204 -17 c0 -3 -18 4 -40 15 -22 11 -40 23 -40 25 0 3 18 -4 40 -15
22 -11 40 -23 40 -25z m247 13 c-3 -7 -5 -2 -5 12 0 14 2 19 5 13 2 -7 2 -19
0 -25z m-270 -54 c-3 -3 -12 -4 -19 -1 -8 3 -5 6 6 6 11 1 17 -2 13 -5z"/>
<path d="M2115 3521 c-61 -18 -130 -49 -123 -56 2 -3 40 9 84 25 43 17 84 30
91 30 6 0 15 5 18 10 8 13 2 12 -70 -9z"/>
<path d="M1690 3225 c-39 -39 -58 -65 -49 -65 9 0 28 9 43 21 29 23 91 109 79
109 -5 0 -38 -29 -73 -65z"/>
<path d="M3370 2664 l0 -75 89 3 c64 2 93 -1 105 -11 9 -8 19 -12 21 -9 5 4
-11 118 -21 150 -4 14 -20 17 -99 17 l-95 1 0 -76z"/>
<path d="M2892 1498 c-45 -17 -81 -32 -79 -34 7 -7 118 26 155 46 54 28 19 23
-76 -12z"/>
<path d="M2706 1487 c-81 -32 -86 -44 -13 -33 46 7 107 39 107 56 0 13 -2 13
-94 -23z"/>
<path d="M2490 1410 c0 -5 12 -10 26 -10 14 0 23 4 19 10 -3 6 -15 10 -26 10
-10 0 -19 -4 -19 -10z"/>
<path d="M2681 2112 c-13 -42 -26 -85 -28 -94 -5 -16 2 -18 56 -18 33 0 61 1
61 3 -1 8 -58 178 -61 182 -3 2 -16 -30 -28 -73z"/>
</g>
</svg>
